<?xml version="1.0" standalone="no"?>
<!DOCTYPE svg PUBLIC "-//W3C//DTD SVG 20010904//EN"
 "http://www.w3.org/TR/2001/REC-SVG-20010904/DTD/svg10.dtd">
<svg version="1.0" xmlns="http://www.w3.org/2000/svg"
 width="256.000000pt" height="256.000000pt" viewBox="0 0 256.000000 256.000000"
 preserveAspectRatio="xMidYMid meet">
<metadata>
Created by potrace 1.14, written by Peter Selinger 2001-2017
</metadata>
<g transform="translate(0.000000,256.000000) scale(0.100000,-0.100000)"
fill="#000000" stroke="none">
<path d="M386 2414 c-118 -24 -217 -114 -242 -220 -4 -16 -8 -425 -9 -909 -1
-896 -1 -919 35 -985 37 -70 129 -138 210 -155 61 -13 1758 -9 1810 4 53 14
125 61 159 103 13 16 34 55 47 86 l24 57 -3 900 -2 900 -27 50 c-48 92 -132
156 -223 171 -71 11 -1723 10 -1779 -2z"/>
</g>
</svg>
